<svg aria-hidden="true" focusable="false" data-prefix="fad" data-icon="images" class="svg-inline--fa fa-images fa-w-18" role="img" xmlns="http://www.w3.org/2000/svg" viewBox="0 0 576 512"><g class="fa-group"><path class="fa-secondary" fill="currentColor" d="M424.49 120.48a12 12 0 0 0-17 0L272 256l-39.51-39.52a12 12 0 0 0-17 0L160 272v48h352V208zM64 336V128H48a48 48 0 0 0-48 48v256a48 48 0 0 0 48 48h384a48 48 0 0 0 48-48v-16H144a80.09 80.09 0 0 1-80-80z" opacity="0.4"></path><path class="fa-primary" fill="currentColor" d="M528 32H144a48 48 0 0 0-48 48v256a48 48 0 0 0 48 48h384a48 48 0 0 0 48-48V80a48 48 0 0 0-48-48zM208 80a48 48 0 1 1-48 48 48 48 0 0 1 48-48zm304 240H160v-48l55.52-55.52a12 12 0 0 1 17 0L272 256l135.52-135.52a12 12 0 0 1 17 0L512 208z"></path></g></svg>